<?xml version="1.0" encoding="UTF-8"?>
<!DOCTYPE svg PUBLIC "-//W3C//DTD SVG 1.1//EN" "http://www.w3.org/Graphics/SVG/1.1/DTD/svg11.dtd">
<!-- Creator: CorelDRAW 2021.5 -->
<svg xmlns="http://www.w3.org/2000/svg" xml:space="preserve" width="297mm" height="210mm" version="1.1" style="shape-rendering:geometricPrecision; text-rendering:geometricPrecision; image-rendering:optimizeQuality; fill-rule:evenodd; clip-rule:evenodd"
viewBox="0 0 29700 21000"
 xmlns:xlink="http://www.w3.org/1999/xlink"
 xmlns:xodm="http://www.corel.com/coreldraw/odm/2003">
 <defs>
  <style type="text/css">
   <![CDATA[
    .fil0 {fill:#E41B23}
    .fil1 {fill:#F7991D}
   ]]>
  </style>
 </defs>
 <g id="Layer_x0020_1">
  <metadata id="CorelCorpID_0Corel-Layer"/>
  <g id="_105553161001056">
   <path class="fil0" d="M12620.58 11958.44c74.67,0.11 145.4,13.8 219.88,13.6 87.34,-0.25 166.05,-11.42 252.37,-13.72 211.84,-5.72 571.2,-121.85 755.92,-201.27 441.67,-189.9 790.43,-488.5 1040.57,-903.6 143.83,-238.68 178.11,-457.37 206.71,-769.72l57.01 -16.81c21.52,-23.57 56.41,-56.14 80.34,-82.52 36.12,-39.82 30.71,-55.77 67.89,-92.16 68.44,-239.32 69.01,-425.28 -82.65,-607.62 -130.05,-156.36 -282.68,-223.77 -535.89,-126.07l-134.74 -105.31c-51.48,-36.02 -74.04,-59.27 -122.66,-88.75 -54.02,-32.75 -79.14,-37.88 -125.99,-81.66l-192.02 -82 -161.9 -1533.78c285.45,19.81 515.09,-52.96 731.58,-165.58 233.29,-121.35 323.14,-261.32 450.39,-439.48 81.81,-231.2 155.04,-379.54 56.76,-650.2 -145.94,-401.9 -585.87,-583.28 -998.34,-567.23 -291.02,11.33 -389.62,88.66 -615.07,177.54 65.14,266 239.12,456.2 95.86,933.95 -75.01,250.1 -314.92,626.06 -498.1,677.82 46.63,-126.62 493.43,-577.19 317.07,-1202.04 -218.1,-772.64 -1410.39,-1006.15 -2156.57,-567.04 -294.06,173.04 -636.53,468.58 -719.49,887.16 158.86,40.29 296.81,158.49 379.3,249.29 57.91,63.73 230.57,305.42 166.74,417.66 -47.54,-51.86 -76.25,-167.1 -139.69,-245.67 -54.84,-67.93 -127.65,-126.04 -218.84,-179.77 -175.97,-103.71 -438.83,-138.63 -674.44,-108.55 -468.39,59.81 -795.19,330.08 -951.41,644.67 -359.42,723.73 465.54,1417.79 1358.35,1092.45 102.7,-37.42 185.01,-94.15 265.51,-127.11l439.51 1018.74c179.64,426.89 193.03,349.27 86.66,498.67 -95.5,134.14 -194.54,301.9 -241.42,488.26 -465.91,6.01 -527.36,597.61 -260.62,874.61 88.03,91.41 188.74,114.26 353.14,144.44 217.68,477.03 947.83,849.55 1448.28,838.8zm1247.26 -2962.43c-893.2,87.81 -1328.81,219.93 -2108.26,538.94 -162.49,66.51 -168.21,60.1 -262.8,185.79 -214.89,285.58 -191.66,492.73 -320.27,560.87 -132.25,70.07 -221.21,-25.65 -286.66,161.96 -43.8,125.56 -12.21,260.03 50.45,343.72 129.81,173.35 155.14,64.39 312.91,135.74 153.65,69.49 207.92,542.98 1007.89,770.06 516.85,146.71 1041.47,61.61 1498.99,-124.2 497.31,-201.97 944.81,-627.5 1079.94,-1130.97 38.24,-142.47 23.04,-277.3 50.36,-398.58 32.99,-146.4 152.89,-110.38 215.14,-233.15 111.7,-220.31 -68.89,-577.23 -317.55,-466.59 -163.83,72.9 -223.51,9.34 -311.18,-77.63 -56.82,-56.37 -174.55,-132.84 -265.32,-183.33 -131.85,-73.36 -176.33,-99.08 -343.64,-82.63zm-1060.79 1627.41c-206.48,42.87 -104.56,339.98 -329.93,426.74 -298.06,114.73 -357.56,-205.63 -567.72,-153.46 -21.12,80.5 136.51,348.19 184.98,415.22 166.63,230.42 598.38,321.34 894.35,100.55 105.35,-78.59 162.45,-147.07 212.46,-270.03l33.96 -81.67c13.02,-22.26 8.44,-15.86 22.41,-30.28 211.7,301.24 906.47,331.12 1104.71,-238.56 27.81,-79.9 41.55,-465.42 2.93,-507.53 -94.16,-102.68 -196.95,219.76 -239.11,271.21 -85.52,104.4 -239.5,169.04 -385.61,74.04 -36.13,-23.49 -251.19,-295.93 -331.05,-141.75 -21.82,42.12 -20.34,263.74 -241.4,306.99 -233.39,45.67 -254.68,-129.57 -360.98,-171.47zm739.51 -1388.26c-73.8,23.35 -141.25,34.65 -163.3,111.78 -21,73.44 24.07,150.06 60.98,183.4 129.11,116.61 167.25,-108.57 413.12,19.37 200.67,104.43 210.72,-137.37 96.33,-230.06 -93.81,-76.02 -261.16,-130.64 -407.13,-84.49zm-1682.93 895.55c126.67,-140.64 70.06,-184.35 311.02,-215.07 163.69,-20.86 150.81,-289.91 -15.01,-305.03 -381.1,-34.74 -596.52,525.04 -296.01,520.1zm1750.34 -396.95c-117.32,33.49 -218.63,126.16 -168.69,293.38 31.26,104.69 158.91,193.44 298.23,145.76 274.38,-93.88 147.59,-518.25 -129.54,-439.14zm-1365.61 316.73c-298.27,152.12 -76.75,529.86 192.59,415.02 267.3,-113.98 81,-554.55 -192.59,-415.02z"/>
   <path class="fil1" d="M13570.74 5622.1c225.45,-88.88 324.05,-166.21 615.07,-177.54 412.47,-16.05 852.4,165.33 998.34,567.23 98.28,270.66 25.05,419 -56.76,650.2 67.72,331.76 100.36,688.75 157.34,1029.24 23.15,138.37 18.14,127.82 -73.21,193.87 -107.9,78.01 -342.82,348.48 -393.96,490.23 -205.92,-10.62 -275.58,9.45 -383.16,128.78 -77.54,85.99 -147.41,222.51 -135.06,378.72 46.85,43.78 71.97,48.91 125.99,81.66 48.62,29.48 71.18,52.73 122.66,88.75 -26.37,-123.3 -56.64,-222.08 7.69,-344.91 45.09,-86.13 122.1,-143.09 240.44,-97.74 194.89,74.68 154.55,-112.65 363,-362.72 111.78,-134.1 267.66,-292.63 457.98,-322.05 787.89,-121.78 1381.3,-119.42 2172.45,1.56 137.69,21.06 181.12,63.63 262.63,135.04 85.91,75.26 114.32,105.08 190.32,192.3 250.72,287.73 139.4,434.37 365.51,351.31 226.34,-83.16 332.31,254.11 228.77,444.79 -82.4,151.76 -122.52,86.18 -256.55,112.42 -94.79,18.56 -94.86,144.46 -133.21,245.49 -354.03,932.74 -1736.26,1247.16 -2691.88,801.87 -132.51,-61.75 -419.46,-225.74 -453.87,-318.36 -37.18,36.39 -31.77,52.34 -67.89,92.16 -23.93,26.38 -58.82,58.95 -80.34,82.52 465.12,486.61 1349.51,650.82 2044.09,517.85 377,-72.18 670.53,-222.2 921.56,-407.11 540.26,-397.94 459.9,-744.45 604.27,-791.58 106.46,-34.76 161.41,-32.92 265.54,-167.16 194.18,-250.32 161.33,-859.38 -398.19,-846.28 -87.34,-107.61 -117.42,-198.49 -215.32,-300 -67.57,-70.08 -184.4,-203.52 -274.42,-242.65l223.42 -1547.27c356.54,90.92 699.85,92.09 1010.97,-74.59 239.16,-128.12 495.2,-362.56 510.02,-727.17 27.35,-672.83 -783.09,-1091.64 -1482.17,-875.84 86.21,357.3 40.63,650.9 -133.2,930.6 -118.04,189.95 -432.98,491.97 -632.31,520.43 0.39,-67.96 75.69,-79.19 193.46,-195.19 1257.42,-1238.34 -692.47,-2687.26 -2073.55,-1741.18 -128.3,87.87 -322.57,283.14 -386.11,435.35 94.54,41.09 225.22,194.32 284.6,293.61 58.85,98.4 164.33,347.51 82.98,482.34 -75.23,-78.39 25.97,-334.75 -390.88,-606.65 -213.94,-139.56 -520.16,-201.96 -817.34,-166.94 -529.32,62.37 -1028.02,457.34 -919.72,1064.61zm3118.23 4125.55c32.81,24.22 -1.75,-10.39 39.06,37.31 0.93,1.09 29.36,40.83 35.07,48.96 164.05,233.98 492.63,323.8 752.85,222.87 503.63,-195.32 458.89,-807.15 435.55,-765.87l-55.44 -4.97c-27.42,6.23 -43.72,25.47 -61.18,42.65 -102.01,100.41 -157.79,250.55 -357.94,242.54 -306.09,-12.25 -213.17,-337.11 -468.09,-331.81 -46.12,55.43 -38.77,106.79 -104.94,172.2 -45.21,44.71 -108.49,81.58 -192.24,85.12 -222.15,9.41 -238.84,-130.25 -320.61,-253.29 -167.62,-22.87 -181.01,122.44 -261.78,224.18 -77.82,98.03 -229.18,146.12 -365.78,69.53 -110.99,-62.24 -169.25,-220.93 -255.97,-249.28 -118.77,-38.85 -85.5,57.12 -66.95,122.98 20.78,73.85 21.76,152.23 42.44,224.13 68.27,237.55 275.4,425.18 552.15,456.93 310.49,35.62 566.32,-150.8 653.8,-344.18zm754.66 -1666.6c-78.4,-0.01 -164.92,9.37 -192.98,82.8 -26.51,69.41 -8.34,166.33 42.57,209.94 96.85,82.96 188.05,-85.97 390.89,107.44 146.49,139.67 218.1,-92.54 125.5,-225.7 -57.06,-82.05 -203.85,-174.45 -365.98,-174.48zm-1686.48 24.11c-367.3,127.39 -310.27,434.03 -162.92,412.71 73.76,-10.68 77.42,-73.49 155.89,-110.87 150.14,-71.54 318.74,90.4 345.64,-153.45 21.37,-193.74 -192.55,-199.07 -338.61,-148.39zm1533.33 493.17c-280.05,110.78 -109.93,540.24 175.24,427.57 257.28,-101.65 126.99,-547.12 -175.24,-427.57zm-1349.15 -42.42c-296.11,113.47 -124.97,522.43 154.33,429.66 284.25,-94.4 137.61,-541.55 -154.33,-429.66z"/>
   <path class="fil0" d="M14643.65 15540.99l1062.47 -209.64 0.9 -804.03c464.59,77.05 747.83,61.27 1113.31,-147.88 240.25,-137.48 470.01,-415.87 549.09,-779.86 405.2,-1865.34 -2424.28,-2188.41 -2688.97,-694.15 -67.28,379.84 -38.32,2126.34 -36.8,2635.56zm11964.93 -982.63c-0.05,-438.92 11.61,-897.7 -9.96,-1334.11 -21.73,-439.83 -131.69,-755.53 -393.29,-950.34 -596.18,-444 -1484.31,-418.43 -1991.79,76.25 -673.97,656.93 -485.59,2242.66 1057.43,2225.04 444.96,-5.08 886.14,-16.64 1337.61,-16.84zm-5085.34 -1828.62l775.28 0.54c-20.4,62.74 -399.51,581.36 -471.64,689.95 -126.82,190.91 -417.4,508.48 -287.98,844.61 117.13,304.25 512.85,301.97 873.68,301.97 392.89,0 785.9,1 1178.76,-0.13l185.58 -712.75 -848.25 -1.64c155.95,-360.75 913.09,-998.84 782.89,-1494.02 -84.63,-321.87 -464.29,-333.92 -833.66,-333.9 -194.74,0.02 -1043.69,-11.17 -1163.3,6.16l-191.36 699.21zm-2459.38 -8.73l772.67 9.8c-24.68,68.3 -181.82,275.46 -230.79,346.41 -79.83,115.66 -157.27,225.53 -239.56,342.02 -170.16,240.84 -406.81,530.89 -288.89,847.94 112.9,303.57 519.75,299.63 875.74,299.63 391.9,0 783.84,0.51 1175.72,-0.08l185.84 -710.8 -846.26 -3.75c27.22,-75.25 173.21,-253.82 227.9,-332.87 81.25,-117.47 158.3,-227.39 241.77,-340.26 139.11,-188.12 395.98,-474.61 312.61,-818.94 -77.19,-318.91 -457.26,-335.78 -815.64,-335.74 -387.71,0.04 -775.62,1.19 -1163.3,-0.14 -49.24,15.47 -171.33,580 -207.81,696.78zm-1429.08 1307.68c-28.78,259.67 114.2,443.09 317.84,498.78 200.54,54.83 560.33,27.43 790.31,31.83l0.38 -2534.5 -1107.03 0.48 -1.5 2003.41zm486.09 -3105.63c-313.12,24.91 -553.47,176.95 -508.21,521.43 72.44,551.26 1241.59,523.05 1144.49,-146.91 -41.05,-283.27 -319.94,-399.69 -636.28,-374.52zm7503.12 2800.45c0.77,-229.81 34.6,-561.11 -88.67,-729.51 -127.26,-173.85 -412.79,-180.09 -571.58,-26.34 -146.2,141.54 -159.76,445.46 -9.92,607.29 161.71,174.63 389.47,148.36 670.17,148.56zm-9696.91 -856.06c-493.61,113.41 -358.5,962.19 172.94,841.63 496.01,-112.51 358.14,-963.65 -172.94,-841.63z"/>
   <path class="fil1" d="M2328.94 15541.28l1062.99 -209.94 0.81 -803.97c468.92,70.81 742.7,68.39 1113.74,-147.41 247.61,-144.01 465.38,-408.55 549.32,-779.66 281.28,-1243.56 -1039.53,-2015.72 -2122.88,-1458.98 -748.3,384.55 -603.92,1217.55 -603.92,2064.05 0,445.28 0.65,890.62 -0.06,1335.91zm1275.47 -2669.55c-206.06,55.72 -345.01,251.28 -283.9,532.42 44.33,203.93 240.99,370.49 491.49,298.43 475.71,-136.87 313,-971.62 -207.59,-830.85zm9488.42 -913.41c-86.32,2.3 -165.03,13.47 -252.37,13.72 -74.48,0.2 -145.21,-13.49 -219.88,-13.6 -32.11,58.3 41.59,11.17 -68.93,48.47 -180.69,60.96 -252.44,44.09 -489.31,207.45 -848.2,585.01 -718.03,2194.85 636.22,2349.38 241.17,27.53 530.85,3.13 773.16,-3.99 270.26,-7.94 551.39,-1.84 822.71,-1.17 -1.03,-501.02 48.59,-1388.05 -83.52,-1823.61 -213.6,-704.23 -1043.5,-735.67 -1118.08,-776.65zm-3882.66 771.48l773.7 0.57c-17.32,55.25 -405.7,596.69 -471.64,689.5 -131.22,184.74 -411.35,518.45 -286.39,843.45 117.62,305.92 487.31,303.48 872.37,303.47 392.94,0 785.91,-0.43 1178.83,0.06l186.94 -713.76 -848.59 -0.84 470.39 -670.07c128.56,-180.58 401.38,-482.3 311.57,-825.53 -85.87,-328.13 -461.54,-332.4 -833.81,-332.4 -192.29,0.02 -1046.56,-11.58 -1163.31,6.64l-190.06 698.91zm-2461.96 -0.12l775.36 0.71c-24.72,69.81 -181.81,277.53 -231,348.24 -80.65,115.93 -157.37,225.78 -239.66,342.02 -131.45,185.67 -415.65,510.53 -289.19,845.37 114.71,303.75 516.44,300.78 874.95,300.77 392.62,0 785.33,-0.76 1177.94,0.11l185.47 -712.3 -847.36 -2.4c32.42,-83.29 168.67,-245.14 228.52,-331.14 248.78,-357.47 652.96,-780.28 553.22,-1162.52 -85.19,-326.43 -461.96,-334.3 -832.48,-334.29 -197.39,0.03 -1040.5,-10.7 -1163.3,5.74l-192.47 699.69zm-1427.89 1282.36c-31.35,258.25 113.56,451.7 305.97,511.02 203.2,62.64 569.53,29.04 803.58,36.98l0.75 -2536.82 -1111.71 -0.67c-2.09,334.1 -0.33,668.73 -0.33,1002.89 0,158.75 22.08,900.8 1.74,986.6zm444.46 -3084.58c-723.6,85.75 -615.61,995.64 226.61,894.36 688.89,-82.85 617.18,-994.36 -226.61,-894.36zm7544.96 2796.12c-0.23,-230.8 28.23,-566.25 -88.36,-730.05 -124.05,-174.29 -410.15,-180.82 -570.06,-24.17 -146.62,143.64 -169.07,436.53 -9.89,603.71 170.83,179.4 378.47,149.82 668.31,150.51z"/>
  </g>
 </g>
</svg>
